<?xml version="1.0" encoding="utf-8"?>
<?xml-stylesheet type="text/xsl" href="rss1.xsl"?>
<rss version="2.0" xmlns:atom="http://www.w3.org/2005/Atom" xmlns:content="http://purl.org/rss/1.0/modules/content/" xmlns:dc="http://purl.org/dc/elements/1.1/" xmlns:media="http://search.yahoo.com/mrss/">
<channel>
 <title>Getty</title>
 <link>http://www.gettyimg.com/</link>
 <atom:link href="http://www.gettyimg.com/" rel="self" type="application/rss+xml" />

 
                <item>
                <title><![CDATA[【Documentaries】WEB-DL - The.Complete.Taylor.Swift.Story.2023.1080p.AMZN.WEB-DL.DDP2.0.H.264]]></title>
                <link><![CDATA[https://sharemania.us/threads/the-complete-taylor-swift-story-2023-1080p-amzn-web-dl-ddp2-0-h-264.234141/]]></link>
                <description><![CDATA[<article>
<blockquote class="messageText SelectQuoteContainer ugc baseHtml">
<div style="text-align: center"><span style="font-size: 15px"><img src="https://i.imgur.com/IbjCpUJ.jpg" class="bbCodeImage LbImage" alt="[​IMG]" data-url="https://i.imgur.com/IbjCpUJ.jpg" style=""> </span><br>
​</div>
<div class="ToggleTriggerAnchor bbCodeSpoilerContainer">
<button type="button" class="button bbCodeSpoilerButton ToggleTrigger Tooltip JsOnly" data-target="> .SpoilerTarget"><span>Spoiler: <span class="SpoilerTitle">MediaInfo</span></span></button>
<div class="SpoilerTarget bbCodeSpoilerText"><span style="font-family: 'Times New Roman'"><span style="font-size: 15px">General<br>
Unique ID : 174466693048505448618985279703201590135 (0x834110168BEBCAD26905BF048223AB77)<br>
Complete name : D:\The.Complete.Taylor.Swift.Story.2023.1080p.AMZN.WEB-DL.DDP2.0.H.264.mkv<br>
Format : Matroska<br>
Format version : Version 4<br>
File size : 3.76 GiB<br>
Duration : 1 h 0 min<br>
Overall bit rate : 8 961 kb/s<br>
Movie name : The Complete Taylor Swift Story<br>
Encoded date : UTC 2023-12-07 15:28:45<br>
Writing application : mkvmerge v80.0 ('Roundabout') 64-bit<br>
Writing library : libebml v1.4.4 + libmatroska v1.7.1<br>
Cover : Yes<br>
Attachments : cover.png<br>
<br>
Video<br>
ID : 1<br>
Format : AVC<br>
Format/Info : Advanced Video Codec<br>
Format profile : High@L4<br>
Format settings : CABAC / 4 Ref Frames<br>
Format settings, CABAC : Yes<br>
Format settings, Reference frames : 4 frames<br>
Codec ID : V_MPEG4/ISO/AVC<br>
Duration : 1 h 0 min<br>
Bit rate mode : Constant<br>
Bit rate : 8 731 kb/s<br>
Nominal bit rate : 10 000 kb/s<br>
Width : 1 920 pixels<br>
Height : 1 080 pixels<br>
Display aspect ratio : 16:9<br>
Frame rate mode : Constant<br>
Frame rate : 25.000 FPS<br>
Color space : YUV<br>
Chroma subsampling : 4:2:0<br>
Bit depth : 8 bits<br>
Scan type : Progressive<br>
Bits/(Pixel*Frame) : 0.168<br>
Stream size : 3.66 GiB (97%)<br>
Default : Yes<br>
Forced : No<br>
Color range : Limited<br>
Color primaries : BT.709<br>
Transfer characteristics : BT.709<br>
Matrix coefficients : BT.709<br>
<br>
Audio<br>
ID : 2<br>
Format : E-AC-3<br>
Format/Info : Enhanced AC-3<br>
Commercial name : Dolby Digital Plus<br>
Codec ID : A_EAC3<br>
Duration : 1 h 0 min<br>
Bit rate mode : Constant<br>
Bit rate : 224 kb/s<br>
Channel(s) : 2 channels<br>
Channel layout : L R<br>
Sampling rate : 48.0 kHz<br>
Frame rate : 31.250 FPS (1536 SPF)<br>
Compression mode : Lossy<br>
Stream size : 96.2 MiB (2%)<br>
Language : English<br>
Service kind : Complete Main<br>
Default : Yes<br>
Forced : No<br>
<br>
Text #1<br>
ID : 3<br>
Format : UTF-8<br>
Codec ID : S_TEXT/UTF8<br>
Codec ID/Info : UTF-8 Plain Text<br>
Duration : 59 min 42 s<br>
Bit rate : 102 b/s<br>
Frame rate : 0.333 FPS<br>
Count of elements : 1194<br>
Stream size : 45.0 KiB (0%)<br>
Language : English<br>
Default : No<br>
Forced : No<br>
<br>
Text #2<br>
ID : 4<br>
Format : UTF-8<br>
Codec ID : S_TEXT/UTF8<br>
Codec ID/Info : UTF-8 Plain Text<br>
Duration : 58 min 56 s<br>
Bit rate : 116 b/s<br>
Frame rate : 0.314 FPS<br>
Count of elements : 1111<br>
Stream size : 50.1 KiB (0%)<br>
Language : German<br>
Default : No<br>
Forced : No<br>
<br>
Text #3<br>
ID : 5<br>
Format : UTF-8<br>
Codec ID : S_TEXT/UTF8<br>
Codec ID/Info : UTF-8 Plain Text<br>
Duration : 58 min 56 s<br>
Bit rate : 110 b/s<br>
Frame rate : 0.312 FPS<br>
Count of elements : 1105<br>
Stream size : 47.7 KiB (0%)<br>
Language : Spanish<br>
Default : No<br>
Forced : No<br>
<br>
<br>
</span></span></div>
</div><br>
<div style="text-align: center"><span style="font-family: 'Times New Roman'"><span style="font-size: 15px"><br>
<div class="bbCodeBlock bbCodeVfcHH HiddenContent">
<div class="attribution type">Hidden Content:</div>
<blockquote>You must either reply or click 'Like' to see the hidden information contained here.</blockquote>
</div></span></span><br>
<span style="font-size: 15px"><span style="font-family: 'Times New Roman'">Credits: to original ripper</span></span>​</div>
<div class="messageTextEndMarker">&nbsp;</div>
</blockquote>
</article>]]></description>
                <author><![CDATA[mariellisaa]]></author>
                </item>

                </channel></rss>